<?xml version="1.0" encoding="UTF-8" standalone="no"?>
<svg width="24px" height="24px" viewBox="0 0 24 24" version="1.1" xmlns="http://www.w3.org/2000/svg" xmlns:xlink="http://www.w3.org/1999/xlink" xmlns:sketch="http://www.bohemiancoding.com/sketch/ns">
    <!-- Generator: Sketch 3.1 (8751) - http://www.bohemiancoding.com/sketch -->
    <title>icon-map</title>
    <desc>Created with Sketch.</desc>
    <defs></defs>
    <g id="Page-1" stroke="none" stroke-width="1" fill="none" fill-rule="evenodd" sketch:type="MSPage">
        <g id="icon-line" sketch:type="MSLayerGroup" transform="translate(4.000000, 4.000000)" fill="#FFFFFF">
            <g id="Page-1" sketch:type="MSShapeGroup">
                <path d="M12.9458824,-0.06 L2.73411765,-0.07882353 C1.13411765,-0.07882353 -0.17411765,1.22 -0.17411765,2.82 L-0.19294118,13.0317647 C-0.19294118,14.6317647 1.10588235,15.94 2.70588235,15.94 L12.9176471,15.9588235 C14.5176471,15.9588235 15.8258824,14.66 15.8258824,13.06 L15.8447059,2.84823529 C15.8447059,1.23882353 14.5458824,-0.06 12.9458824,-0.06 Z M8,14 C9,12.5 11,6.65685425 11,5 C11,3.34314575 9.65685425,2 8,2 C6.34314575,2 5,3.34314575 5,5 C5,6.65685425 7,12.5 8,14 Z M8,6 C8.55228475,6 9,5.55228475 9,5 C9,4.44771525 8.55228475,4 8,4 C7.44771525,4 7,4.44771525 7,5 C7,5.55228475 7.44771525,6 8,6 Z" id="Shape"></path>
            </g>
        </g>
    </g>
</svg>