<?xml version="1.0" encoding="UTF-8" standalone="no"?>
<svg width="24px" height="24px" viewBox="0 0 24 24" version="1.1" xmlns="http://www.w3.org/2000/svg" xmlns:xlink="http://www.w3.org/1999/xlink" xmlns:sketch="http://www.bohemiancoding.com/sketch/ns">
    <!-- Generator: Sketch 3.1 (8751) - http://www.bohemiancoding.com/sketch -->
    <title>icon-fb</title>
    <desc>Created with Sketch.</desc>
    <defs></defs>
    <g id="Page-1" stroke="none" stroke-width="1" fill="none" fill-rule="evenodd" sketch:type="MSPage">
        <path d="M11.3277553,20 L7.00947762,20 C5.33663106,20 4,18.652611 4,16.9905224 L4,7.00947762 C4,5.33663106 5.34738902,4 7.00947762,4 L16.9905224,4 C18.6633689,4 20,5.34738902 20,7.00947762 L20,16.9905224 C20,18.6633689 18.652611,20 16.9905224,20 L14.118643,20 L14.118643,13.3658878 L15.9808965,13.3658878 L16.2276599,11.037993 L14.118643,11.037993 L14.1220703,9.87272138 C14.1220703,9.26547153 14.1793991,8.94019253 15.0503929,8.94019253 L16.214574,8.94019253 L16.214574,6.61183036 L14.3520089,6.61183036 C12.1149368,6.61183036 11.3277553,7.74111561 11.3277553,9.64029018 L11.3277553,11.0379929 L9.93301247,11.0379929 L9.93301247,13.3658877 L11.3277553,13.3658877 L11.3277553,20 Z" id="Rectangle-1" fill="#FFFFFF" sketch:type="MSShapeGroup"></path>
    </g>
</svg>