<?xml version="1.0" encoding="UTF-8" standalone="no"?>
<svg width="24px" height="24px" viewBox="0 0 24 24" version="1.1" xmlns="http://www.w3.org/2000/svg" xmlns:xlink="http://www.w3.org/1999/xlink" xmlns:sketch="http://www.bohemiancoding.com/sketch/ns">
    <!-- Generator: Sketch 3.1 (8751) - http://www.bohemiancoding.com/sketch -->
    <title>icon-line</title>
    <desc>Created with Sketch.</desc>
    <defs></defs>
    <g id="Page-1" stroke="none" stroke-width="1" fill="none" fill-rule="evenodd" sketch:type="MSPage">
        <path d="M16.9458824,3.94 L6.73411765,3.92117647 C5.13411765,3.92117647 3.82588235,5.22 3.82588235,6.82 L3.80705882,17.0317647 C3.80705882,18.6317647 5.10588235,19.94 6.70588235,19.94 L16.9176471,19.9588235 C18.5176471,19.9588235 19.8258824,18.66 19.8258824,17.06 L19.8447059,6.84823529 C19.8447059,5.23882353 18.5458824,3.94 16.9458824,3.94 L16.9458824,3.94 Z M17.6705882,11.7341176 C17.6705882,9.11764706 15.0541176,7 11.8352941,7 C8.61647059,7 6,9.12705882 6,11.7341176 C6,14.0776471 8.08,16.0352941 10.8847059,16.4117647 C11.0729412,16.4494118 11.3364706,16.5341176 11.4023529,16.7035294 C11.4588235,16.8541176 11.44,17.08 11.4211765,17.2305882 C11.4211765,17.2305882 11.3552941,17.6447059 11.3364706,17.7294118 C11.3082353,17.88 11.2235294,18.3035294 11.8447059,18.04 C12.4658824,17.7764706 15.2047059,16.0635294 16.4282353,14.6517647 C17.2658824,13.72 17.6705882,12.7788235 17.6705882,11.7341176 Z M9.53882353,13.2870588 L8.38117647,13.2870588 C8.21176471,13.2870588 8.07058824,13.1458824 8.07058824,12.9764706 L8.07058824,10.6517647 C8.07058824,10.4823529 8.21176471,10.3411765 8.38117647,10.3411765 C8.55058824,10.3411765 8.69176471,10.4823529 8.69176471,10.6517647 L8.69176471,12.6658824 L9.54823529,12.6658824 C9.71764706,12.6658824 9.85882353,12.8070588 9.85882353,12.9764706 C9.84941176,13.1552941 9.70823529,13.2870588 9.53882353,13.2870588 Z M10.7435294,12.9858824 C10.7435294,13.1552941 10.6023529,13.2964706 10.4329412,13.2964706 C10.2635294,13.2964706 10.1223529,13.1552941 10.1223529,12.9858824 L10.1223529,10.6611765 C10.1223529,10.4917647 10.2635294,10.3505882 10.4329412,10.3505882 C10.6023529,10.3505882 10.7435294,10.4917647 10.7435294,10.6611765 L10.7435294,12.9858824 Z M13.5388235,12.9858824 C13.5388235,13.1176471 13.4541176,13.2305882 13.3317647,13.2776471 C13.3035294,13.2870588 13.2658824,13.2964706 13.2376471,13.2964706 C13.1435294,13.2964706 13.0494118,13.2494118 12.9929412,13.1741176 L11.8070588,11.5552941 L11.8070588,12.9858824 C11.8070588,13.1552941 11.6658824,13.2964706 11.4964706,13.2964706 C11.3270588,13.2964706 11.1858824,13.1552941 11.1858824,12.9858824 L11.1858824,10.6611765 C11.1858824,10.5294118 11.2705882,10.4164706 11.3929412,10.3694118 C11.4211765,10.36 11.4588235,10.3505882 11.4870588,10.3505882 C11.5811765,10.3505882 11.6752941,10.3976471 11.7317647,10.4729412 L12.9176471,12.0917647 L12.9176471,10.6517647 C12.9176471,10.4823529 13.0588235,10.3411765 13.2282353,10.3411765 C13.3976471,10.3411765 13.5388235,10.4823529 13.5388235,10.6517647 L13.5388235,12.9858824 Z M15.4117647,11.5176471 C15.5811765,11.5176471 15.7129412,11.6588235 15.7129412,11.8282353 C15.7129412,11.9976471 15.5717647,12.1388235 15.4117647,12.1388235 L14.5552941,12.1388235 L14.5552941,12.6847059 L15.4117647,12.6847059 C15.5811765,12.6847059 15.7129412,12.8258824 15.7129412,12.9952941 C15.7129412,13.1647059 15.5717647,13.3058824 15.4117647,13.3058824 L14.2541176,13.3058824 C14.0847059,13.3058824 13.9529412,13.1647059 13.9529412,12.9952941 L13.9529412,11.8376471 L13.9529412,10.68 C13.9529412,10.5105882 14.0941176,10.3694118 14.2541176,10.3694118 L15.4117647,10.3694118 C15.5811765,10.3694118 15.7129412,10.5105882 15.7129412,10.68 C15.7129412,10.8494118 15.5717647,10.9905882 15.4117647,10.9905882 L14.5552941,10.9905882 L14.5552941,11.5364706 L15.4117647,11.5364706 L15.4117647,11.5176471 Z" id="Shape" fill="#FFFFFF" sketch:type="MSShapeGroup"></path>
    </g>
</svg>