<?xml version="1.0" encoding="UTF-8" standalone="no"?>
<svg width="24px" height="24px" viewBox="0 0 24 24" version="1.1" xmlns="http://www.w3.org/2000/svg" xmlns:xlink="http://www.w3.org/1999/xlink" xmlns:sketch="http://www.bohemiancoding.com/sketch/ns">
    <!-- Generator: Sketch 3.1 (8751) - http://www.bohemiancoding.com/sketch -->
    <title>icon-phone</title>
    <desc>Created with Sketch.</desc>
    <defs></defs>
    <g id="Page-1" stroke="none" stroke-width="1" fill="none" fill-rule="evenodd" sketch:type="MSPage">
        <path d="M7.00947762,4 C5.34738902,4 4,5.33663106 4,7.00947762 L4,16.9905224 C4,18.652611 5.33663106,20 7.00947762,20 L16.9905224,20 C18.652611,20 20,18.6633689 20,16.9905224 L20,7.00947762 C20,5.34738902 18.6633689,4 16.9905224,4 L7.00947762,4 Z M14.566724,13.0712969 C13.8333333,13.8046875 13.8333333,14.5379349 13.0999427,14.5379349 C12.3666953,14.5379349 11.6333047,13.8046875 10.9000573,13.0712969 C10.1666667,12.3379062 9.43327604,11.6046589 9.43327604,10.8712682 C9.43327604,10.1380208 10.1666667,10.1380208 10.9000573,9.40463021 C11.6333047,8.67123958 9.43327604,6.47135417 8.70002865,6.47135417 C7.96663802,6.47135417 6.5,8.67123958 6.5,8.67123958 C6.5,10.1380208 8.00682813,13.1113437 9.43327604,14.5379349 C10.8598672,15.964526 13.8333333,17.4713542 15.2999714,17.4713542 C15.2999714,17.4713542 17.5,16.0045729 17.5,15.2713255 C17.5,14.5379349 15.2999714,12.3379062 14.566724,13.0712969 Z" id="Rectangle-1-2" fill="#FFFFFF" sketch:type="MSShapeGroup"></path>
    </g>
</svg>