<?xml version="1.0" encoding="UTF-8" standalone="no"?>
<svg width="129px" height="97px" viewBox="0 0 129 97" version="1.1" xmlns="http://www.w3.org/2000/svg" xmlns:xlink="http://www.w3.org/1999/xlink" xmlns:sketch="http://www.bohemiancoding.com/sketch/ns">
    <!-- Generator: Sketch 3.0.4 (8053) - http://www.bohemiancoding.com/sketch -->
    <title>logo</title>
    <desc>Created with Sketch.</desc>
    <defs></defs>
    <g id="Page-1" stroke="none" stroke-width="1" fill="none" fill-rule="evenodd" sketch:type="MSPage">
        <g id="logo" sketch:type="MSLayerGroup" fill="#FFFFFF">
            <g id="Page-1" sketch:type="MSShapeGroup">
                <path d="M93.3303191,57.7182896 L76.7656315,70.0199038 L74.3252999,73.3644609 L128.557569,73.3644609 L126.45001,69.3946171 L83.5127141,69.3946171 L99.0671391,57.7182896 L122.533593,57.7182896 L121.175496,55.7949269 L111.345299,48.5013739 L124.708983,38.4695824 L110.987734,28.3517846 L121.237227,20.7400914 L122.595325,18.8787726 L98.1409106,18.8787726 L82.7700045,7.54454766 L126.45001,7.54454766 L128.557569,3.57470386 L74.4362241,3.57470386 L76.8765556,7.03074614 L92.8452375,18.8787726 L75.5634809,18.8787726 L76.7363834,22.1671023 L97.2772238,22.1671023 L105.799093,28.4899365 L92.4085202,38.2985311 L105.998925,48.3100648 L97.7582052,54.4299599 L76.7363834,54.4299599 L75.5634809,57.7182896 L93.3303191,57.7182896 L93.3303191,57.7182896 Z M108.542012,46.421464 L119.249585,38.4695824 L108.301557,30.3466496 L97.5939837,38.2985311 L108.542012,46.421464 L108.542012,46.421464 Z M102.600379,22.1671023 L108.496018,26.5144389 L114.261545,22.2911902 L114.261545,22.1671023 L102.600379,22.1671023 L102.600379,22.1671023 Z M108.825924,50.3926077 L103.447633,54.4299599 L114.138081,54.4299599 L114.138081,54.3058719 L108.825924,50.3926077 L108.825924,50.3926077 Z M35.3936076,57.7182896 L51.9582949,70.0199038 L54.3986264,73.3644609 L0.166357333,73.3644609 L2.27391639,69.3946171 L45.2112123,69.3946171 L29.6567874,57.7182896 L6.1903329,57.7182896 L7.54843045,55.7949269 L17.378627,48.5013739 L4.01494344,38.4695824 L17.7361925,28.3517846 L7.48669875,20.7400914 L6.1286012,18.8787726 L30.5830154,18.8787726 L45.9539218,7.54454766 L2.27391639,7.54454766 L0.166357333,3.57470386 L54.2877023,3.57470386 L51.8473708,7.03074614 L35.8786888,18.8787726 L53.1604454,18.8787726 L51.987543,22.1671023 L31.4467026,22.1671023 L22.9248337,28.4899365 L36.3154059,38.2985311 L22.7250018,48.3100648 L30.965721,54.4299599 L51.987543,54.4299599 L53.1604454,57.7182896 L35.3936076,57.7182896 L35.3936076,57.7182896 Z M20.1819142,46.421464 L9.47434126,38.4695824 L20.4223697,30.3466496 L31.1299425,38.2985311 L20.1819142,46.421464 L20.1819142,46.421464 Z M26.1235479,22.1671023 L20.2279085,26.5144389 L14.4623816,22.2911902 L14.4623816,22.1671023 L26.1235479,22.1671023 L26.1235479,22.1671023 Z M19.8980025,50.3926077 L25.2762939,54.4299599 L14.585845,54.4299599 L14.585845,54.3058719 L19.8980025,50.3926077 L19.8980025,50.3926077 Z M68.8710145,14.7433677 L68.8710145,3.4049893 L67.9110145,4.13601633 L64.0857837,9.34271903 L60.2753222,4.13601633 L59.3005529,3.44974606 L59.3005529,14.7433677 L60.6888606,14.2361245 L60.6888606,6.92585417 L60.7183991,6.92585417 L64.0857837,11.5805568 L67.4679375,6.89601633 L67.4827067,6.89601633 L67.4827067,14.2361245 L68.8710145,14.7433677 L68.8710145,14.7433677 Z M69.2328606,29.1998001 L64.3885529,18.6968812 L63.6057837,19.0549353 L58.953476,29.1998001 L60.1793222,29.781638 L61.9368606,25.9623947 L66.2642452,25.9623947 L67.977476,29.766719 L69.2328606,29.1998001 L69.2328606,29.1998001 Z M65.7177837,24.7688812 L62.4537837,24.7688812 L64.0931683,21.1435839 L65.7177837,24.7688812 L65.7177837,24.7688812 Z M67.3497837,41.2095298 C67.3497837,40.6227161 67.2291696,40.1552613 66.9879375,39.8071515 C66.7467056,39.4590416 66.4414779,39.1780715 66.0722452,38.9642325 C65.7030126,38.7503936 65.3017858,38.5788278 64.8685529,38.4495298 C64.43532,38.3202319 64.0340932,38.1809901 63.6648606,38.0318001 C63.295628,37.8826102 62.9879388,37.698612 62.7417837,37.4798001 C62.4956286,37.2609882 62.3725529,36.9526669 62.3725529,36.5548271 C62.3725529,36.3260692 62.4168601,36.11472 62.505476,35.9207731 C62.5940918,35.7268262 62.7171675,35.5577468 62.8747067,35.4135298 C63.032246,35.2693129 63.2168595,35.1574221 63.4285529,35.0778541 C63.6402463,34.9982862 63.8691671,34.9585028 64.1153222,34.9585028 C64.4402468,34.9585028 64.7528591,35.0181779 65.0531683,35.1375298 C65.3534775,35.2568818 65.7202431,35.4359071 66.153476,35.6746109 L66.6851683,34.4960163 C65.8187025,33.9688786 64.9374805,33.7053136 64.041476,33.7053136 C63.6082431,33.7053136 63.2045548,33.7799075 62.830399,33.9290974 C62.4562433,34.0782873 62.1264005,34.2821772 61.8408606,34.5407731 C61.5553207,34.7993689 61.3313229,35.1052038 61.1688606,35.4582866 C61.0063983,35.8113695 60.9251683,36.1868252 60.9251683,36.584665 C60.9251683,37.0222888 60.9965522,37.3902851 61.1393222,37.688665 C61.2820921,37.9870449 61.4691672,38.2381774 61.7005529,38.4420704 C61.9319387,38.6459633 62.1953206,38.8125562 62.4907067,38.9418541 C62.7860929,39.0711522 63.088859,39.1905023 63.3990145,39.2999083 C63.7091699,39.4093141 64.0143976,39.516232 64.3147067,39.620665 C64.615016,39.725098 64.8808594,39.849421 65.1122452,39.993638 C65.343631,40.1378549 65.5307061,40.3168801 65.673476,40.530719 C65.8162459,40.744558 65.8876299,41.0106093 65.8876299,41.3288812 C65.8876299,41.9057489 65.6956318,42.3458527 65.3116299,42.6492055 C64.9276279,42.9525584 64.4304021,43.1042325 63.8199375,43.1042325 C63.455628,43.1042325 63.0888624,43.0047741 62.7196299,42.8058541 C62.3503972,42.6069342 61.9442474,42.3582881 61.5011683,42.0599083 L60.9842452,43.2981785 C61.5159402,43.6462883 62.0254736,43.9098533 62.5128606,44.0888812 C63.0002477,44.2679091 63.4900889,44.3574218 63.982399,44.3574218 C64.4451707,44.3574218 64.8808586,44.2902873 65.289476,44.1560163 C65.6980935,44.0217454 66.0550129,43.8228284 66.3602452,43.5592596 C66.6654775,43.2956907 66.9067059,42.9674778 67.0839375,42.5746109 C67.2611692,42.1817441 67.3497837,41.7267216 67.3497837,41.2095298 L67.3497837,41.2095298 Z M69.5873222,53.9502866 C69.5873222,53.2043369 69.4445544,52.5081276 69.1590145,51.861638 C68.8734745,51.2151482 68.4845554,50.6507214 67.9922452,50.1683406 C67.4999351,49.6859599 66.9190178,49.3080177 66.249476,49.0345028 C65.5799342,48.7609879 64.8611721,48.6242325 64.0931683,48.6242325 C63.3251644,48.6242325 62.608864,48.7609879 61.9442452,49.0345028 C61.2796266,49.3080177 60.7011707,49.6859599 60.2088606,50.1683406 C59.7165505,50.6507214 59.3300928,51.2151482 59.049476,51.861638 C58.7688592,52.5081276 58.6285529,53.2043369 58.6285529,53.9502866 C58.6285529,54.6962363 58.7688592,55.3924455 59.049476,56.0389353 C59.3300928,56.6854249 59.7165505,57.2498517 60.2088606,57.7322325 C60.7011707,58.2146134 61.2796266,58.5925555 61.9442452,58.8660704 C62.608864,59.1395852 63.3251644,59.2763406 64.0931683,59.2763406 C64.8611721,59.2763406 65.5799342,59.1395852 66.249476,58.8660704 C66.9190178,58.5925555 67.4999351,58.2146134 67.9922452,57.7322325 C68.4845554,57.2498517 68.8734745,56.6854249 69.1590145,56.0389353 C69.4445544,55.3924455 69.5873222,54.6962363 69.5873222,53.9502866 L69.5873222,53.9502866 Z M68.1399375,53.9502866 C68.1399375,54.5271544 68.036554,55.0642301 67.8297837,55.5615298 C67.6230134,56.0588296 67.3399393,56.4889875 66.9805529,56.8520163 C66.6211665,57.2150451 66.1953246,57.5009883 65.7030145,57.7098541 C65.2107043,57.9187201 64.6839403,58.0231515 64.1227067,58.0231515 C63.5614732,58.0231515 63.0347092,57.9187201 62.542399,57.7098541 C62.0500889,57.5009883 61.6217855,57.2150451 61.257476,56.8520163 C60.8931665,56.4889875 60.6051694,56.0588296 60.393476,55.5615298 C60.1817827,55.0642301 60.0759375,54.5271544 60.0759375,53.9502866 C60.0759375,53.3734188 60.1817827,52.8388296 60.393476,52.3465028 C60.6051694,51.8541761 60.8931665,51.4240182 61.257476,51.0560163 C61.6217855,50.6880145 62.0500889,50.399585 62.542399,50.190719 C63.0347092,49.9818531 63.5614732,49.8774218 64.1227067,49.8774218 C64.6839403,49.8774218 65.2107043,49.9818531 65.7030145,50.190719 C66.1953246,50.399585 66.6211665,50.6880145 66.9805529,51.0560163 C67.3399393,51.4240182 67.6230134,51.8541761 67.8297837,52.3465028 C68.036554,52.8388296 68.1399375,53.3734188 68.1399375,53.9502866 L68.1399375,53.9502866 Z M68.8119375,74.5383947 L68.8119375,63.6774218 L67.4236299,63.6774218 L67.4236299,71.5844488 L60.4673222,63.7072596 L59.3891683,63.1701785 L59.3891683,74.0311515 L60.7922452,74.0311515 L60.7922452,66.0942866 L67.7928606,74.0013136 L68.8119375,74.5383947 L68.8119375,74.5383947 Z M9.67716827,91.7465385 L9.67716827,82.2249532 L8.44311703,82.2249532 L8.44311703,86.3094218 L3.23121959,86.3094218 L3.23121959,82.2249532 L1.9971683,82.2249532 L1.9971683,91.7465385 L3.23121959,91.3221786 L3.23121959,87.3703229 L8.44311703,87.3703229 L8.44311703,91.3221786 L9.67716827,91.7465385 L9.67716827,91.7465385 Z M21.9028093,91.3619622 L17.5967581,82.0260344 L16.9009632,82.3443047 L12.7655786,91.3619622 L13.8552196,91.8791518 L15.417476,88.4842684 L19.2640401,88.4842684 L20.7869119,91.8658901 L21.9028093,91.3619622 L21.9028093,91.3619622 Z M18.7782965,87.4233674 L15.8769632,87.4233674 L17.334194,84.2008812 L18.7782965,87.4233674 L18.7782965,87.4233674 Z M26.2515273,91.4282684 L26.2515273,81.906683 L25.017476,82.3708271 L25.017476,91.4282684 L26.2515273,91.4282684 L26.2515273,91.4282684 Z M37.3612708,91.1232592 L34.4730657,86.9194397 C35.5233274,86.4950773 36.0484504,85.7436133 36.0484504,84.6650254 C36.0484504,84.3467534 35.9937501,84.0417476 35.8843478,83.7499983 C35.7749455,83.4582491 35.5955285,83.1996571 35.3460914,82.9742146 C35.0966542,82.748772 34.7706404,82.5675365 34.3680401,82.4305028 C33.9654398,82.2934691 33.4753251,82.2249532 32.8976811,82.2249532 L30.390194,82.2249532 L30.390194,91.4415302 L31.6242452,91.4415302 L31.6242452,87.2509713 L33.3177837,87.2509713 L36.350399,91.7730612 L37.3612708,91.1232592 L37.3612708,91.1232592 Z M34.7618863,84.7313317 C34.7618863,85.1822168 34.5999733,85.5402673 34.2761426,85.8054938 C33.952312,86.0707204 33.4534452,86.2033317 32.7795273,86.2033317 L31.6242452,86.2033317 L31.6242452,83.2725929 L32.7532708,83.2725929 C33.4534453,83.2725929 33.9632522,83.4096246 34.2827067,83.683692 C34.6021614,83.9577595 34.7618863,84.3069692 34.7618863,84.7313317 L34.7618863,84.7313317 Z M52.478399,88.9086292 C52.478399,88.2986081 52.3208622,87.7946846 52.0057837,87.3968447 C51.6907052,86.9990054 51.2355986,86.724942 50.6404504,86.5746469 C51.008042,86.335943 51.2815435,86.0618798 51.4609632,85.7524488 C51.6403829,85.4430178 51.7300914,85.0672858 51.7300914,84.6252416 C51.7300914,84.3511741 51.6841432,84.0726904 51.5922452,83.7897821 C51.5003474,83.5068737 51.3340584,83.2504919 51.0933734,83.020629 C50.8526884,82.790766 50.5244866,82.6006897 50.1087581,82.4503947 C49.6930294,82.3000997 49.1569665,82.2249532 48.5005529,82.2249532 L46.4788093,82.2249532 L46.4788093,91.4282684 L49.275117,91.4282684 C49.756487,91.4282684 50.1962774,91.3708037 50.5945016,91.2558724 C50.9927258,91.1409404 51.3296798,90.9751761 51.6053734,90.7585746 C51.8810672,90.5419731 52.0954923,90.2767508 52.2486555,89.9628993 C52.4018187,89.6490477 52.478399,89.2976275 52.478399,88.9086292 L52.478399,88.9086292 Z M50.4435273,84.7578541 C50.4435273,84.9877172 50.4063311,85.1954748 50.3319375,85.3811334 C50.257544,85.566792 50.1393914,85.7259256 49.977476,85.8585389 C49.8155607,85.9911522 49.6011354,86.0928208 49.334194,86.1635479 C49.0672525,86.234275 48.7412386,86.269638 48.3561426,86.269638 L47.7128606,86.269638 L47.7128606,83.2725929 L48.3298863,83.2725929 C48.6274604,83.2725929 48.9053379,83.296905 49.1635273,83.3455298 C49.4217166,83.3941547 49.6448938,83.4759317 49.8330658,83.5908632 C50.0212376,83.7057947 50.1700225,83.8582977 50.2794247,84.0483767 C50.3888269,84.2384557 50.4435273,84.4749458 50.4435273,84.7578541 L50.4435273,84.7578541 Z M51.2049632,88.8555838 C51.2049632,89.0324018 51.174331,89.2092164 51.1130658,89.3860344 C51.0518005,89.5628523 50.9423999,89.726406 50.7848606,89.8767013 C50.6273214,90.0269958 50.4128961,90.1485561 50.1415786,90.2413859 C49.870261,90.3342147 49.528931,90.3806292 49.1175786,90.3806292 L47.7128606,90.3806292 L47.7128606,87.3040163 L48.9206555,87.3040163 C49.3932732,87.3040163 49.7761754,87.3504303 50.0693734,87.4432592 C50.3625715,87.5360889 50.5945008,87.6554387 50.7651683,87.8013137 C50.9358358,87.9471879 51.0518005,88.1129521 51.1130658,88.2986107 C51.174331,88.4842693 51.2049632,88.6699253 51.2049632,88.8555838 L51.2049632,88.8555838 Z M65.334194,86.8398722 C65.334194,86.1768058 65.2072892,85.5579531 64.953476,84.9832956 C64.6996627,84.4086381 64.3539568,83.9069253 63.9163478,83.4781425 C63.4787387,83.0493596 62.9623679,82.713411 62.3672196,82.4702866 C61.7720713,82.2271623 61.1331717,82.1056019 60.4505016,82.1056019 C59.7678315,82.1056019 59.13112,82.2271623 58.5403478,82.4702866 C57.9495756,82.713411 57.4353927,83.0493596 56.9977837,83.4781425 C56.5601746,83.9069253 56.2166567,84.4086381 55.9672196,84.9832956 C55.7177824,85.5579531 55.5930657,86.1768058 55.5930657,86.8398722 C55.5930657,87.5029388 55.7177824,88.121791 55.9672196,88.6964488 C56.2166567,89.2711066 56.5601746,89.7728187 56.9977837,90.2016023 C57.4353927,90.6303851 57.9495756,90.9663338 58.5403478,91.209458 C59.13112,91.4525822 59.7678315,91.5741426 60.4505016,91.5741426 C61.1331717,91.5741426 61.7720713,91.4525822 62.3672196,91.209458 C62.9623679,90.9663338 63.4787387,90.6303851 63.9163478,90.2016023 C64.3539568,89.7728187 64.6996627,89.2711066 64.953476,88.6964488 C65.2072892,88.121791 65.334194,87.5029388 65.334194,86.8398722 L65.334194,86.8398722 Z M64.0476299,86.8398722 C64.0476299,87.3526435 63.9557333,87.8300444 63.7719375,88.272088 C63.5881417,88.7141326 63.3365203,89.0964949 63.0170657,89.4191879 C62.6976112,89.74188 62.319085,89.9960511 61.881476,90.1817097 C61.4438669,90.3673683 60.9756324,90.4601963 60.4767581,90.4601963 C59.9778838,90.4601963 59.5096491,90.3673683 59.0720401,90.1817097 C58.634431,89.9960511 58.253717,89.74188 57.9298863,89.4191879 C57.6060556,89.0964949 57.3500581,88.7141326 57.1618863,88.272088 C56.9737144,87.8300444 56.8796299,87.3526435 56.8796299,86.8398722 C56.8796299,86.3271008 56.9737144,85.8519104 57.1618863,85.4142866 C57.3500581,84.9766628 57.6060556,84.5943002 57.9298863,84.2671875 C58.253717,83.9400747 58.634431,83.6836929 59.0720401,83.4980344 C59.5096491,83.3123758 59.9778838,83.2195479 60.4767581,83.2195479 C60.9756324,83.2195479 61.4438669,83.3123758 61.881476,83.4980344 C62.319085,83.6836929 62.6976112,83.9400747 63.0170657,84.2671875 C63.3365203,84.5943002 63.5881417,84.9766628 63.7719375,85.4142866 C63.9557333,85.8519104 64.0476299,86.3271008 64.0476299,86.8398722 L64.0476299,86.8398722 Z M76.7065016,91.7332776 L76.7065016,82.0260344 L75.4724504,82.3310433 L75.4724504,87.2907551 C75.4724504,87.8654128 75.3914939,88.3560746 75.2295786,88.762755 C75.0676632,89.1694354 74.855426,89.4987541 74.5928606,89.7507189 C74.3302952,90.0026846 74.0349135,90.18613 73.7067067,90.3010612 C73.3785,90.4159933 73.0481101,90.473458 72.7155273,90.473458 C72.3654401,90.473458 72.0328622,90.4115721 71.7177837,90.2878003 C71.4027052,90.1640276 71.1270157,89.9761619 70.8907067,89.7241963 C70.6543979,89.4722315 70.4684168,89.1517542 70.3327581,88.762755 C70.1970992,88.3737558 70.1292708,87.9140369 70.1292708,87.3835838 L70.1292708,82.3310433 L68.8952196,82.0260344 L68.8952196,87.4101065 C68.8952196,88.1085361 68.9958681,88.7185486 69.1971683,89.2401602 C69.3984685,89.7617727 69.67197,90.1971794 70.0176811,90.5463951 C70.3633922,90.8956099 70.7681746,91.1564118 71.2320401,91.3288095 C71.6959057,91.5012064 72.1903965,91.5874035 72.7155273,91.5874035 C72.9605883,91.5874035 73.2122097,91.5608817 73.470399,91.5078364 C73.7285884,91.4547911 73.9802098,91.375224 74.2252708,91.2691333 C74.470332,91.1630427 74.7022612,91.0304312 74.9210657,90.8712952 C75.1398703,90.7121593 75.3324154,90.5220839 75.4987067,90.3010612 L75.4987067,91.3487013 L76.7065016,91.7332776 L76.7065016,91.7332776 Z M87.6849636,82.2249532 L79.926194,82.2249532 L79.545476,83.2725929 L82.9588093,83.2725929 L82.9588093,91.4415302 L84.1928606,91.4415302 L84.1928606,83.2725929 L87.3173732,83.2725929 L87.6849636,82.2249532 L87.6849636,82.2249532 Z M91.9417836,91.4282684 L91.9417836,81.906683 L90.7077322,82.3708271 L90.7077322,91.4282684 L91.9417836,91.4282684 L91.9417836,91.4282684 Z M105.453988,86.8133497 C105.453988,86.1414424 105.329272,85.5181693 105.079835,84.9435118 C104.830398,84.3688543 104.48688,83.8693518 104.049271,83.4449893 C103.611662,83.0206268 103.095291,82.6890986 102.500143,82.4503947 C101.904995,82.2116908 101.261719,82.0923406 100.570297,82.0923406 C99.8788742,82.0923406 99.2355982,82.213901 98.6404503,82.4570254 C98.0453023,82.7001496 97.5311195,83.0338881 97.0978864,83.4582505 C96.6646534,83.882613 96.3255114,84.3843257 96.0804503,84.9634037 C95.8353892,85.5424817 95.7128607,86.1679649 95.7128607,86.8398722 C95.7128607,87.5029388 95.841953,88.139473 96.1001426,88.7494941 C96.3583323,89.3595151 96.7237296,89.8545972 97.1963474,90.234755 C97.2226045,91.101162 97.2685522,91.9388228 97.3341941,92.7477642 C97.399835,93.5567047 97.5070478,94.3192197 97.655835,95.0353313 L98.7586045,95.300557 C98.7411001,95.1944664 98.7214077,95.0618548 98.6995274,94.9027189 C98.6776471,94.743583 98.6535788,94.5115134 98.6273217,94.2065025 C98.6010655,93.9014924 98.5748093,93.501448 98.5485531,93.006359 C98.522296,92.5112692 98.4960398,91.8791552 98.4697836,91.1099983 C98.7936142,91.3133389 99.141508,91.4459496 99.513476,91.5078364 C99.885444,91.5697223 100.224586,91.6006652 100.530912,91.6006652 C101.213582,91.6006652 101.854669,91.4768943 102.454194,91.2293498 C103.053718,90.9818053 103.574465,90.643646 104.01645,90.2148632 C104.458435,89.7860804 104.808518,89.2799472 105.066706,88.6964488 C105.324896,88.1129504 105.453988,87.4852567 105.453988,86.8133497 L105.453988,86.8133497 Z M104.167425,86.8266109 C104.167425,87.3305411 104.071152,87.8035217 103.878605,88.2455662 C103.686056,88.6876099 103.425682,89.0699731 103.097476,89.3926652 C102.769269,89.7153574 102.386367,89.971739 101.948758,90.1618179 C101.511149,90.3518968 101.042915,90.4469354 100.54404,90.4469354 C100.045166,90.4469354 99.5813074,90.3518968 99.1524503,90.1618179 C98.7235931,89.971739 98.3494431,89.7131468 98.0299884,89.3860344 C97.7105345,89.0589219 97.458913,88.6765587 97.2751169,88.2389354 C97.0913209,87.8013111 96.9994246,87.3305411 96.9994246,86.8266109 C96.9994246,86.3226805 97.0913209,85.8519104 97.2751169,85.4142866 C97.458913,84.9766628 97.7127225,84.5943002 98.0365531,84.2671875 C98.3603837,83.9400747 98.7410975,83.6814828 99.1787065,83.4914037 C99.6163154,83.3013247 100.084551,83.2062866 100.583425,83.2062866 C101.082299,83.2062866 101.550534,83.2991145 101.988143,83.4847731 C102.425752,83.6704317 102.804277,83.9268135 103.123732,84.2539262 C103.443187,84.581039 103.696996,84.9634015 103.885168,85.4010254 C104.07334,85.8386492 104.167425,86.3138396 104.167425,86.8266109 L104.167425,86.8266109 Z M116.813168,91.7332776 L116.813168,82.0260344 L115.579117,82.3310433 L115.579117,87.2907551 C115.579117,87.8654128 115.49816,88.3560746 115.336245,88.762755 C115.17433,89.1694354 114.962093,89.4987541 114.699527,89.7507189 C114.436962,90.0026846 114.141581,90.18613 113.813373,90.3010612 C113.485167,90.4159933 113.154776,90.473458 112.822194,90.473458 C112.472106,90.473458 112.139529,90.4115721 111.82445,90.2878003 C111.509371,90.1640276 111.233682,89.9761619 110.997373,89.7241963 C110.761065,89.4722315 110.575083,89.1517542 110.439425,88.762755 C110.303766,88.3737558 110.235938,87.9140369 110.235938,87.3835838 L110.235938,82.3310433 L109.001886,82.0260344 L109.001886,87.4101065 C109.001886,88.1085361 109.102535,88.7185486 109.303835,89.2401602 C109.505136,89.7617727 109.778637,90.1971794 110.124347,90.5463951 C110.470059,90.8956099 110.874841,91.1564118 111.338706,91.3288095 C111.802573,91.5012064 112.297063,91.5874035 112.822194,91.5874035 C113.067255,91.5874035 113.318877,91.5608817 113.577066,91.5078364 C113.835255,91.4547911 114.086877,91.375224 114.331938,91.2691333 C114.576999,91.1630427 114.808928,91.0304312 115.027732,90.8712952 C115.246537,90.7121593 115.439082,90.5220839 115.605373,90.3010612 L115.605373,91.3487013 L116.813168,91.7332776 L116.813168,91.7332776 Z M126.268758,91.4282684 L125.914297,90.3806292 L122.028347,90.3806292 L122.028347,87.3305385 L125.664861,87.3305385 L125.664861,86.2828992 L122.028347,86.2828992 L122.028347,83.2725929 L125.74363,83.2725929 L126.203117,82.2249532 L120.794297,82.2249532 L120.794297,91.4282684 L126.268758,91.4282684 L126.268758,91.4282684 Z" id="Mason-logo"></path>
            </g>
        </g>
    </g>
</svg>