<?xml version="1.0" encoding="UTF-8" standalone="no"?>
<svg width="108px" height="78px" viewBox="0 0 108 78" version="1.1" xmlns="http://www.w3.org/2000/svg" xmlns:xlink="http://www.w3.org/1999/xlink" xmlns:sketch="http://www.bohemiancoding.com/sketch/ns">
    <!-- Generator: Sketch 3.1.1 (8761) - http://www.bohemiancoding.com/sketch -->
    <title>logo</title>
    <desc>Created with Sketch.</desc>
    <defs></defs>
    <g id="Page-1" stroke="none" stroke-width="1" fill="none" fill-rule="evenodd" sketch:type="MSPage">
        <g id="logo" sketch:type="MSLayerGroup" fill="#FFFFFF">
            <g id="Page-1" sketch:type="MSShapeGroup">
                <g id="logo">
                    <g id="Page-1">
                        <path d="M78.1370113,46.3915934 L64.2689008,56.8212228 L62.2258325,59.6568255 L107.629593,59.6568255 L105.865125,56.2910884 L69.9176211,56.2910884 L82.9399304,46.3915934 L102.586264,46.3915934 L101.449252,44.7609163 L93.2193201,38.5772518 L104.407521,30.0720373 L92.9199633,21.4939043 L101.500934,15.0405123 L102.637947,13.4624376 L82.1644833,13.4624376 L69.2958177,3.85298606 L105.865125,3.85298606 L107.629593,0.487248925 L62.3186992,0.487248925 L64.3617675,3.41737173 L77.7308965,13.4624376 L63.2624491,13.4624376 L64.244414,16.2503693 L81.4413967,16.2503693 L88.5759848,21.6110331 L77.3652727,29.9270155 L88.743286,38.4150549 L81.8440788,43.6036617 L64.244414,43.6036617 L63.2624491,46.3915934 L78.1370113,46.3915934 L78.1370113,46.3915934 Z M90.8723821,36.8138499 L99.8368619,30.0720373 L90.671071,23.1852029 L81.706591,29.9270155 L90.8723821,36.8138499 L90.8723821,36.8138499 Z M85.8979917,16.2503693 L90.8338755,19.9361547 L95.6608284,16.3555743 L95.6608284,16.2503693 L85.8979917,16.2503693 L85.8979917,16.2503693 Z M91.1100759,40.1806891 L86.6073207,43.6036617 L95.5574632,43.6036617 L95.5574632,43.4984566 L91.1100759,40.1806891 L91.1100759,40.1806891 Z M29.6318575,46.3915934 L43.4999678,56.8212228 L45.5430361,59.6568255 L0.139275907,59.6568255 L1.90374395,56.2910884 L37.8512475,56.2910884 L24.8289383,46.3915934 L5.18260429,46.3915934 L6.31961619,44.7609163 L14.5495482,38.5772518 L3.361348,30.0720373 L14.8489053,21.4939043 L6.26793384,15.0405123 L5.13092193,13.4624376 L25.604385,13.4624376 L38.4730508,3.85298606 L1.90374395,3.85298606 L0.139275907,0.487248925 L45.4501694,0.487248925 L43.4071011,3.41737173 L30.037972,13.4624376 L44.5064194,13.4624376 L43.5244546,16.2503693 L26.3274719,16.2503693 L19.192884,21.6110331 L30.4035956,29.9270155 L19.0255829,38.4150549 L25.9247897,43.6036617 L43.5244546,43.6036617 L44.5064194,46.3915934 L29.6318575,46.3915934 L29.6318575,46.3915934 Z M16.8964863,36.8138499 L7.93200664,30.0720373 L17.0977979,23.1852029 L26.0622774,29.9270155 L16.8964863,36.8138499 L16.8964863,36.8138499 Z M21.8708773,16.2503693 L16.9349932,19.9361547 L12.1080404,16.3555743 L12.1080404,16.2503693 L21.8708773,16.2503693 L21.8708773,16.2503693 Z M16.6587928,40.1806891 L21.1615484,43.6036617 L12.2114051,43.6036617 L12.2114051,43.4984566 L16.6587928,40.1806891 L16.6587928,40.1806891 Z M57.659454,9.95633348 L57.659454,0.343360493 L56.8557331,0.96314428 L53.6532143,5.37752266 L50.4630604,0.96314428 L49.6469745,0.381306442 L49.6469745,9.95633348 L50.8092786,9.52627947 L50.8092786,3.32844158 L50.8340085,3.32844158 L53.6532143,7.2748199 L56.4847849,3.30314428 L56.4971498,3.30314428 L56.4971498,9.52627947 L57.659454,9.95633348 L57.659454,9.95633348 Z M57.9623949,22.212874 L53.9066955,13.3082254 L53.2513538,13.611793 L49.3563985,22.212874 L50.3826884,22.7061713 L51.8541159,19.4681172 L55.4770425,19.4681172 L56.9113753,22.6935226 L57.9623949,22.212874 L57.9623949,22.212874 Z M55.0195398,18.4562254 L52.2868887,18.4562254 L53.6593967,15.3826037 L55.0195398,18.4562254 L55.0195398,18.4562254 Z M56.3858654,32.3950361 C56.3858654,31.8975202 56.2848862,31.5011998 56.0829244,31.2060632 C55.8809628,30.9109266 55.6254234,30.6727128 55.3162983,30.4914145 C55.0071733,30.3101163 54.6712625,30.1646584 54.3085559,30.0550361 C53.9458493,29.945414 53.6099385,29.8273612 53.3008135,29.700874 C52.9916886,29.5743869 52.7340883,29.4183884 52.528005,29.232874 C52.3219216,29.0473596 52.2188815,28.7859567 52.2188815,28.4486578 C52.2188815,28.2547108 52.2559759,28.0755235 52.330166,27.9110902 C52.4043559,27.746657 52.507396,27.6033071 52.6392893,27.4810361 C52.7711827,27.3587653 52.9257428,27.2639013 53.1029745,27.1964415 C53.2802062,27.1289818 53.4718608,27.0952524 53.6779442,27.0952524 C53.9499741,27.0952524 54.211696,27.1458465 54.4631176,27.2470361 C54.7145393,27.3482259 55.0215989,27.5000082 55.3843055,27.7023875 L55.8294432,26.7031443 C55.10403,26.2562232 54.3662627,26.0327659 53.6161194,26.0327659 C53.2534128,26.0327659 52.9154412,26.0960085 52.6021945,26.2224956 C52.2889479,26.3489827 52.0128004,26.5218459 51.7737438,26.7410902 C51.5346871,26.9603345 51.3471541,27.2196293 51.2111391,27.5189821 C51.0751242,27.818335 51.0071176,28.1366561 51.0071176,28.4739551 C51.0071176,28.844984 51.0668809,29.1569808 51.1864093,29.4099551 C51.3059376,29.6629294 51.4625586,29.8758461 51.6562768,30.0487119 C51.8499952,30.2215776 52.070501,30.3628194 52.317801,30.4724415 C52.565101,30.5820638 52.8185796,30.6832519 53.0782447,30.7760092 C53.3379097,30.8687663 53.5934492,30.9594141 53.8448707,31.0479551 C54.0962925,31.1364961 54.318859,31.2419004 54.5125774,31.3641713 C54.7062957,31.4864422 54.8629167,31.6382244 54.982445,31.8195226 C55.1019733,32.0008209 55.1617367,32.2263861 55.1617367,32.4962254 C55.1617367,32.9853088 55.0009941,33.3584403 54.6795041,33.6156307 C54.3580141,33.8728213 53.941732,34.0014145 53.4306453,34.0014145 C53.125642,34.0014145 52.8185825,33.9170911 52.5094576,33.7484415 C52.2003325,33.579792 51.8603001,33.3689834 51.4893502,33.1160092 L51.0565774,34.165847 C51.5017174,34.4609836 51.9283035,34.6844408 52.3363484,34.8362254 C52.7443934,34.9880099 53.154493,35.0639011 53.5666596,35.0639011 C53.9540964,35.0639011 54.3188584,35.0069827 54.6609567,34.8931443 C55.003055,34.7793059 55.3018713,34.6106589 55.5574146,34.3871984 C55.8129579,34.1637378 56.0149166,33.8854703 56.1632965,33.5523875 C56.3116765,33.2193048 56.3858654,32.8335248 56.3858654,32.3950361 L56.3858654,32.3950361 L56.3858654,32.3950361 Z M58.2591535,43.1969821 C58.2591535,42.5645465 58.1396269,41.9742821 57.9005703,41.4261713 C57.6615135,40.8780604 57.3359068,40.3995247 56.9237402,39.9905496 C56.5115736,39.5815747 56.0252242,39.2611454 55.4646776,39.0292524 C54.904131,38.7973593 54.3023766,38.6814145 53.6593967,38.6814145 C53.0164167,38.6814145 52.4167233,38.7973593 51.8602983,39.0292524 C51.3038734,39.2611454 50.8195848,39.5815747 50.4074182,39.9905496 C49.9952516,40.3995247 49.6717056,40.8780604 49.4367706,41.4261713 C49.2018356,41.9742821 49.0843699,42.5645465 49.0843699,43.1969821 C49.0843699,43.8294177 49.2018356,44.4196821 49.4367706,44.967793 C49.6717056,45.5159037 49.9952516,45.9944395 50.4074182,46.4034145 C50.8195848,46.8123896 51.3038734,47.1328188 51.8602983,47.3647119 C52.4167233,47.5966048 53.0164167,47.7125496 53.6593967,47.7125496 C54.3023766,47.7125496 54.904131,47.5966048 55.4646776,47.3647119 C56.0252242,47.1328188 56.5115736,46.8123896 56.9237402,46.4034145 C57.3359068,45.9944395 57.6615135,45.5159037 57.9005703,44.967793 C58.1396269,44.4196821 58.2591535,43.8294177 58.2591535,43.1969821 L58.2591535,43.1969821 L58.2591535,43.1969821 Z M57.0473895,43.1969821 C57.0473895,43.6860657 56.9608359,44.1414125 56.7877259,44.5630361 C56.6146159,44.9846599 56.3776236,45.349359 56.076742,45.6571443 C55.7758603,45.9649295 55.4193415,46.2073596 55.0071749,46.3844415 C54.5950083,46.5615236 54.1539965,46.6500632 53.6841265,46.6500632 C53.2142566,46.6500632 52.7732449,46.5615236 52.3610782,46.3844415 C51.9489116,46.2073596 51.590332,45.9649295 51.2853287,45.6571443 C50.9803254,45.349359 50.7392116,44.9846599 50.5619799,44.5630361 C50.3847483,44.1414125 50.2961337,43.6860657 50.2961337,43.1969821 C50.2961337,42.7078985 50.3847483,42.2546599 50.5619799,41.8372524 C50.7392116,41.419845 50.9803254,41.0551459 51.2853287,40.7431443 C51.590332,40.4311427 51.9489116,40.1866047 52.3610782,40.0095226 C52.7732449,39.8324407 53.2142566,39.7439011 53.6841265,39.7439011 C54.1539965,39.7439011 54.5950083,39.8324407 55.0071749,40.0095226 C55.4193415,40.1866047 55.7758603,40.4311427 56.076742,40.7431443 C56.3776236,41.0551459 56.6146159,41.419845 56.7877259,41.8372524 C56.9608359,42.2546599 57.0473895,42.7078985 57.0473895,43.1969821 L57.0473895,43.1969821 L57.0473895,43.1969821 Z M57.6099942,60.6521172 L57.6099942,51.4439011 L56.4476901,51.4439011 L56.4476901,58.1476849 L50.6238046,51.4691984 L49.7211642,51.013847 L49.7211642,60.2220632 L50.8958332,60.2220632 L50.8958332,53.4929821 L56.7568135,60.1967659 L57.6099942,60.6521172 L57.6099942,60.6521172 Z M8.1018153,75.2416305 L8.1018153,67.1689821 L7.06865612,67.1689821 L7.06865612,70.6319011 L2.7052071,70.6319011 L2.7052071,67.1689821 L1.67204788,67.1689821 L1.67204788,75.2416305 L2.7052071,74.8818471 L2.7052071,71.5313607 L7.06865612,71.5313607 L7.06865612,74.8818471 L8.1018153,75.2416305 L8.1018153,75.2416305 Z M18.3372357,74.9155766 L14.7321696,67.0003335 L14.1496436,67.2701714 L10.6874612,74.9155766 L11.5997187,75.3540635 L12.9076543,72.4757928 L16.1280336,72.4757928 L17.402996,75.3428199 L18.3372357,74.9155766 L18.3372357,74.9155766 Z M15.7213645,71.5763332 L13.2923413,71.5763332 L14.5123485,68.8442254 L15.7213645,71.5763332 L15.7213645,71.5763332 Z M21.9780229,74.9717928 L21.9780229,66.8991443 L20.9448636,67.2926578 L20.9448636,74.9717928 L21.9780229,74.9717928 L21.9780229,74.9717928 Z M31.2792035,74.713198 L28.8611713,71.1490902 C29.7404601,70.7893047 30.180098,70.1521939 30.180098,69.2377389 C30.180098,68.9678996 30.1343024,68.7093077 30.0427098,68.4619551 C29.9511172,68.2146025 29.8009076,67.9953615 29.5920765,67.8042254 C29.3832454,67.6130893 29.1103036,67.4594331 28.7732429,67.3432524 C28.4361822,67.2270716 28.0258536,67.1689821 27.5422446,67.1689821 L25.4429531,67.1689821 L25.4429531,74.9830365 L26.4761123,74.9830365 L26.4761123,71.4301713 L27.8939584,71.4301713 L30.4328922,75.2641171 L31.2792035,74.713198 L31.2792035,74.713198 Z M29.1029746,69.2939551 C29.1029746,69.6762273 28.9674195,69.9797918 28.6963054,70.2046578 C28.4251914,70.4295238 28.0075355,70.5419551 27.4433252,70.5419551 L26.4761123,70.5419551 L26.4761123,68.0571983 L27.421343,68.0571983 C28.0075356,68.0571983 28.4343507,68.1733774 28.701801,68.4057389 C28.9692514,68.6381004 29.1029746,68.9341695 29.1029746,69.2939551 L29.1029746,69.2939551 L29.1029746,69.2939551 Z M43.9354038,72.8355769 C43.9354038,72.3183851 43.8035125,71.8911456 43.5397259,71.5538466 C43.2759392,71.2165481 42.8949198,70.98419 42.3966561,70.8567659 C42.7044073,70.6543865 42.9333853,70.4220285 43.0835971,70.1596849 C43.2338089,69.8973412 43.3089137,69.5787858 43.3089137,69.2040092 C43.3089137,68.9716476 43.2704455,68.7355419 43.1935076,68.4956848 C43.1165699,68.2558277 42.9773512,68.0384605 42.7758475,67.8435768 C42.5743438,67.6486929 42.2995702,67.4875413 41.9515184,67.3601172 C41.6034665,67.2326932 41.1546696,67.1689821 40.6051141,67.1689821 L38.9124915,67.1689821 L38.9124915,74.9717928 L41.2535863,74.9717928 C41.6565938,74.9717928 42.0247904,74.9230727 42.3581874,74.8256309 C42.6915844,74.7281886 42.9736854,74.5876493 43.2044987,74.4040089 C43.4353121,74.2203685 43.6148308,73.9955061 43.7430604,73.7294146 C43.8712901,73.463323 43.9354038,73.1653798 43.9354038,72.8355769 L43.9354038,72.8355769 L43.9354038,72.8355769 Z M42.2317903,69.3164415 C42.2317903,69.5113255 42.2006493,69.6874678 42.1383663,69.844874 C42.0760833,70.0022802 41.9771649,70.1371978 41.8416078,70.2496308 C41.7060508,70.3620638 41.526532,70.4482611 41.3030461,70.5082254 C41.0795602,70.5681897 40.8066184,70.5981713 40.4842124,70.5981713 L39.9456507,70.5981713 L39.9456507,68.0571983 L40.4622304,68.0571983 C40.7113622,68.0571983 40.9440038,68.0778108 41.1601624,68.1190361 C41.3763209,68.1602616 41.5631669,68.2295943 41.7207063,68.3270362 C41.8782454,68.4244781 42.0028095,68.5537741 42.0944021,68.7149281 C42.1859946,68.876082 42.2317903,69.0765845 42.2317903,69.3164415 L42.2317903,69.3164415 L42.2317903,69.3164415 Z M42.8692715,72.7906037 C42.8692715,72.9405146 42.843626,73.0904226 42.7923342,73.2403335 C42.7410423,73.3902443 42.6494511,73.5289094 42.5175577,73.6563337 C42.3856644,73.7837573 42.2061456,73.8868193 41.978996,73.9655228 C41.7518464,74.0442255 41.4660818,74.0835769 41.1216937,74.0835769 L39.9456507,74.0835769 L39.9456507,71.4751443 L40.9568279,71.4751443 C41.3525078,71.4751443 41.6730771,71.5144953 41.9185452,71.593198 C42.1640133,71.6719015 42.3581867,71.7730893 42.5010711,71.896766 C42.6439556,72.0204419 42.7410423,72.1609811 42.7923342,72.3183873 C42.843626,72.4757935 42.8692715,72.6331975 42.8692715,72.7906037 L42.8692715,72.7906037 L42.8692715,72.7906037 Z M54.698395,71.0816308 C54.698395,70.5194658 54.5921491,69.9947863 54.3796543,69.5075767 C54.1671595,69.0203671 53.8777313,68.5950019 53.5113609,68.2314686 C53.1449905,67.8679353 52.7126801,67.5831093 52.2144164,67.3769821 C51.7161527,67.170855 51.18126,67.0677929 50.6097223,67.0677929 C50.0381845,67.0677929 49.5051237,67.170855 49.0105237,67.3769821 C48.5159238,67.5831093 48.0854451,67.8679353 47.7190747,68.2314686 C47.3527043,68.5950019 47.0651079,69.0203671 46.8562769,69.5075767 C46.6474457,69.9947863 46.5430317,70.5194658 46.5430317,71.0816308 C46.5430317,71.6437959 46.6474457,72.168475 46.8562769,72.6556849 C47.0651079,73.1428947 47.3527043,73.5682593 47.7190747,73.9317933 C48.0854451,74.2953265 48.5159238,74.5801526 49.0105237,74.7862796 C49.5051237,74.9924066 50.0381845,75.0954687 50.6097223,75.0954687 C51.18126,75.0954687 51.7161527,74.9924066 52.2144164,74.7862796 C52.7126801,74.5801526 53.1449905,74.2953265 53.5113609,73.9317933 C53.8777313,73.5682593 54.1671595,73.1428947 54.3796543,72.6556849 C54.5921491,72.168475 54.698395,71.6437959 54.698395,71.0816308 L54.698395,71.0816308 L54.698395,71.0816308 Z M53.6212715,71.0816308 C53.6212715,71.5163717 53.5443349,71.9211246 53.3904593,72.2959007 C53.2365837,72.6706776 53.025924,72.9948544 52.7584736,73.2684419 C52.4910233,73.5420287 52.1741177,73.7575216 51.8077473,73.9149278 C51.4413769,74.072334 51.0493667,74.151036 50.6317045,74.151036 C50.2140423,74.151036 49.8220318,74.072334 49.4556615,73.9149278 C49.0892911,73.7575216 48.7705538,73.5420287 48.4994397,73.2684419 C48.2283256,72.9948544 48.0140021,72.6706776 47.8564629,72.2959007 C47.6989237,71.9211246 47.6201553,71.5163717 47.6201553,71.0816308 C47.6201553,70.6468898 47.6989237,70.244011 47.8564629,69.8729821 C48.0140021,69.5019532 48.2283256,69.1777763 48.4994397,68.9004416 C48.7705538,68.6231068 49.0892911,68.4057396 49.4556615,68.2483335 C49.8220318,68.0909273 50.2140423,68.0122254 50.6317045,68.0122254 C51.0493667,68.0122254 51.4413769,68.0909273 51.8077473,68.2483335 C52.1741177,68.4057396 52.4910233,68.6231068 52.7584736,68.9004416 C53.025924,69.1777763 53.2365837,69.5019532 53.3904593,69.8729821 C53.5443349,70.244011 53.6212715,70.6468898 53.6212715,71.0816308 L53.6212715,71.0816308 L53.6212715,71.0816308 Z M64.2193967,75.2303875 L64.2193967,67.0003335 L63.1862375,67.258928 L63.1862375,71.4639011 C63.1862375,71.9511109 63.11846,72.3671067 62.982903,72.711901 C62.8473459,73.0566952 62.669659,73.3359002 62.4498368,73.5495225 C62.2300146,73.7631456 61.9827183,73.9186754 61.7079405,74.0161171 C61.4331628,74.1135595 61.1565573,74.1622796 60.8781159,74.1622796 C60.5850196,74.1622796 60.3065823,74.1098111 60.0427957,74.0048742 C59.779009,73.8999364 59.5481992,73.740659 59.3503591,73.527036 C59.1525192,73.3134137 58.9968141,73.0417046 58.8832393,72.711901 C58.7696644,72.3820973 58.7128779,71.9923356 58.7128779,71.5426037 L58.7128779,67.258928 L57.6797187,67.0003335 L57.6797187,71.5650903 C57.6797187,72.1572371 57.7639826,72.6744216 57.932513,73.1166576 C58.1010434,73.5588942 58.3300214,73.9280434 58.6194539,74.2241176 C58.9088865,74.520191 59.2477741,74.7413057 59.6361266,74.8874689 C60.0244792,75.0336315 60.4384715,75.1067117 60.8781159,75.1067117 C61.0832832,75.1067117 61.293943,75.0842258 61.5101015,75.0392526 C61.7262601,74.9942794 61.9369198,74.9268203 62.1420872,74.8368739 C62.3472547,74.7469275 62.541428,74.634496 62.7246131,74.4995764 C62.9077984,74.3646568 63.0689989,74.2035059 63.2082196,74.0161171 L63.2082196,74.9043337 L64.2193967,75.2303875 L64.2193967,75.2303875 Z M73.4106672,67.1689821 L66.9149531,67.1689821 L66.5962125,68.0571983 L69.4538869,68.0571983 L69.4538869,74.9830365 L70.4870461,74.9830365 L70.4870461,68.0571983 L73.1029171,68.0571983 L73.4106672,67.1689821 L73.4106672,67.1689821 Z M76.9745165,74.9717928 L76.9745165,66.8991443 L75.9413572,67.2926578 L75.9413572,74.9717928 L76.9745165,74.9717928 L76.9745165,74.9717928 Z M88.2870597,71.0591443 C88.2870597,70.4894838 88.1826463,69.9610566 87.9738153,69.473847 C87.7649844,68.9866373 87.4773879,68.5631461 87.1110176,68.2033605 C86.7446473,67.8435749 86.3123367,67.5624966 85.8140732,67.3601172 C85.3158098,67.1577379 84.7772531,67.0565496 84.1983882,67.0565496 C83.6195226,67.0565496 83.0809659,67.1596117 82.5827026,67.3657389 C82.0844391,67.571866 81.6539605,67.8548182 81.2912537,68.2146037 C80.928547,68.5743893 80.6446142,68.9997544 80.4394468,69.4907118 C80.2342793,69.9816693 80.1316973,70.5119702 80.1316973,71.0816308 C80.1316973,71.6437959 80.2397746,72.1834662 80.4559333,72.700658 C80.6720922,73.2178498 80.9780062,73.6375933 81.3736862,73.959901 C81.3956689,74.6944634 81.4341367,75.4046541 81.4890927,76.0904957 C81.5440479,76.7763366 81.6338075,77.4228167 81.7583735,78.0299548 L82.6816224,78.2548201 C82.6669675,78.1648737 82.6504809,78.0524421 82.6321625,77.9175225 C82.6138441,77.782603 82.5936939,77.5858483 82.5717112,77.3272521 C82.5497293,77.0686566 82.5277473,76.7294885 82.5057654,76.3097392 C82.4837827,75.8899891 82.4618008,75.3540664 82.4398188,74.7019551 C82.7109328,74.8743525 83.0021927,74.9867834 83.3136078,75.0392526 C83.6250229,75.0917211 83.9089557,75.1179553 84.1654147,75.1179553 C84.7369524,75.1179553 85.2736764,75.0130191 85.7756043,74.8031444 C86.2775313,74.5932697 86.7135056,74.3065694 87.0835395,73.9430362 C87.4535735,73.5795029 87.7466662,73.15039 87.9628236,72.6556849 C88.1789827,72.1609797 88.2870597,71.6288046 88.2870597,71.0591443 L88.2870597,71.0591443 L88.2870597,71.0591443 Z M87.2099372,71.0703875 C87.2099372,71.4976327 87.1293366,71.898638 86.9681344,72.2734148 C86.8069306,72.648191 86.5889431,72.9723685 86.314166,73.2459553 C86.039388,73.5195421 85.7188189,73.7369092 85.3524486,73.898063 C84.9860782,74.0592169 84.5940684,74.1397931 84.1764056,74.1397931 C83.7587436,74.1397931 83.3703969,74.0592169 83.0113537,73.898063 C82.6523105,73.7369092 82.3390686,73.5176679 82.0716182,73.2403335 C81.8041684,72.962999 81.5935086,72.6388215 81.4396328,72.2677931 C81.285757,71.8967638 81.2088206,71.4976327 81.2088206,71.0703875 C81.2088206,70.6431422 81.285757,70.244011 81.4396328,69.8729821 C81.5935086,69.5019532 81.8060002,69.1777763 82.0771142,68.9004416 C82.3482282,68.6231068 82.6669653,68.4038659 83.0333357,68.2427118 C83.3997059,68.0815579 83.7917171,68.0009821 84.2093791,68.0009821 C84.627041,68.0009821 85.0190517,68.079684 85.385422,68.2370902 C85.7517924,68.3944964 86.068697,68.6118636 86.3361477,68.8891983 C86.6035984,69.1665331 86.8160897,69.49071 86.973629,69.8617389 C87.1311684,70.2327678 87.2099372,70.6356466 87.2099372,71.0703875 L87.2099372,71.0703875 L87.2099372,71.0703875 Z M97.7970709,75.2303875 L97.7970709,67.0003335 L96.7639119,67.258928 L96.7639119,71.4639011 C96.7639119,71.9511109 96.696134,72.3671067 96.5605772,72.711901 C96.4250205,73.0566952 96.2473337,73.3359002 96.027511,73.5495225 C95.8076891,73.7631456 95.5603934,73.9186754 95.2856146,74.0161171 C95.0108375,74.1135595 94.7342311,74.1622796 94.4557903,74.1622796 C94.1626934,74.1622796 93.8842568,74.1098111 93.6204698,74.0048742 C93.3566827,73.8999364 93.1258733,73.740659 92.9280332,73.527036 C92.730194,73.3134137 92.5744881,73.0417046 92.460914,72.711901 C92.347339,72.3820973 92.2905527,71.9923356 92.2905527,71.5426037 L92.2905527,67.258928 L91.2573929,67.0003335 L91.2573929,71.5650903 C91.2573929,72.1572371 91.3416572,72.6744216 91.5101874,73.1166576 C91.6787185,73.5588942 91.9076961,73.9280434 92.1971277,74.2241176 C92.486561,74.520191 92.8254483,74.7413057 93.2138004,74.8874689 C93.6021541,75.0336315 94.0161458,75.1067117 94.4557903,75.1067117 C94.6609577,75.1067117 94.871618,75.0842258 95.0877762,75.0392526 C95.3039344,74.9942794 95.5145947,74.9268203 95.719762,74.8368739 C95.9249294,74.7469275 96.1191025,74.634496 96.3022873,74.4995764 C96.4854728,74.3646568 96.6466733,74.2035059 96.7858937,74.0161171 L96.7858937,74.9043337 L97.7970709,75.2303875 L97.7970709,75.2303875 Z M105.713379,74.9717928 L105.416621,74.0835769 L102.163267,74.0835769 L102.163267,71.4976305 L105.207791,71.4976305 L105.207791,70.6094145 L102.163267,70.6094145 L102.163267,68.0571983 L105.273737,68.0571983 L105.658424,67.1689821 L101.130109,67.1689821 L101.130109,74.9717928 L105.713379,74.9717928 L105.713379,74.9717928 Z" id="Mason-logo"></path>
                    </g>
                </g>
            </g>
        </g>
    </g>
</svg>