<?xml version="1.0" encoding="UTF-8" standalone="no"?>
<svg width="87px" height="65px" viewBox="0 0 87 65" version="1.1" xmlns="http://www.w3.org/2000/svg" xmlns:xlink="http://www.w3.org/1999/xlink" xmlns:sketch="http://www.bohemiancoding.com/sketch/ns">
    <!-- Generator: Sketch 3.0.4 (8053) - http://www.bohemiancoding.com/sketch -->
    <title>logo-small</title>
    <desc>Created with Sketch.</desc>
    <defs></defs>
    <g id="Page-1" stroke="none" stroke-width="1" fill="none" fill-rule="evenodd" sketch:type="MSPage">
        <g id="logo" sketch:type="MSLayerGroup" fill="#FFFFFF">
            <g id="Page-1" sketch:type="MSShapeGroup">
                <path d="M62.7608941,38.0074308 L51.6314946,46.2976491 L49.9918968,48.5515897 L86.429203,48.5515897 L85.0131866,45.8762602 L56.1646908,45.8762602 L66.6153201,38.0074308 L82.381844,38.0074308 L81.4693725,36.7112516 L74.864709,31.7960311 L83.8434341,25.0354759 L74.6244697,18.2169601 L81.510848,13.0873407 L82.4233201,11.8329737 L65.9930103,11.8329737 L55.6656827,4.19469167 L85.0131866,4.19469167 L86.429203,1.51936215 L50.066424,1.51936215 L51.7060218,3.84843413 L62.4349799,11.8329737 L50.8237997,11.8329737 L51.6118436,14.049022 L65.4127208,14.049022 L71.1383514,18.3100624 L62.1415605,24.9202022 L71.2726134,31.6671054 L65.7358801,35.7913825 L51.6118436,35.7913825 L50.8237997,38.0074308 L62.7608941,38.0074308 L62.7608941,38.0074308 Z M72.9812505,30.3943527 L80.1754011,25.0354759 L72.8196944,19.5613256 L65.6255438,24.9202022 L72.9812505,30.3943527 L72.9812505,30.3943527 Z M68.9892154,14.049022 L72.9503478,16.9787488 L76.8240613,14.1326464 L76.8240613,14.049022 L68.9892154,14.049022 L68.9892154,14.049022 Z M73.1720037,33.0705582 L69.5584643,35.7913825 L76.7411092,35.7913825 L76.7411092,35.707758 L73.1720037,33.0705582 L73.1720037,33.0705582 Z M23.8346661,38.0074308 L34.9640654,46.2976491 L36.6036631,48.5515897 L0.166357333,48.5515897 L1.58237357,45.8762602 L30.4308692,45.8762602 L19.9802401,38.0074308 L4.21371592,38.0074308 L5.12618771,36.7112516 L11.730851,31.7960311 L2.75212613,25.0354759 L11.9710903,18.2169601 L5.08471172,13.0873407 L4.17223993,11.8329737 L20.6025495,11.8329737 L30.9298772,4.19469167 L1.58237357,4.19469167 L0.166357333,1.51936215 L36.529136,1.51936215 L34.8895383,3.84843413 L24.1605801,11.8329737 L35.7717603,11.8329737 L34.9837165,14.049022 L21.1828393,14.049022 L15.4572086,18.3100624 L24.4539993,24.9202022 L15.3229466,31.6671054 L20.8596798,35.7913825 L34.9837165,35.7913825 L35.7717603,38.0074308 L23.8346661,38.0074308 L23.8346661,38.0074308 Z M13.6143096,30.3943527 L6.42015904,25.0354759 L13.7758656,19.5613256 L20.9700161,24.9202022 L13.6143096,30.3943527 L13.6143096,30.3943527 Z M17.6063447,14.049022 L13.645212,16.9787488 L9.77149865,14.1326464 L9.77149865,14.049022 L17.6063447,14.049022 L17.6063447,14.049022 Z M13.4235564,33.0705582 L17.037096,35.7913825 L9.85445064,35.7913825 L9.85445064,35.707758 L13.4235564,33.0705582 L13.4235564,33.0705582 Z M46.3272988,9.04607037 L46.3272988,1.4049893 L45.6822988,1.89763795 L43.1122219,5.40650281 L40.5520681,1.89763795 L39.897145,1.43515147 L39.897145,9.04607037 L40.8299142,8.70423255 L40.8299142,3.77774606 L40.8497604,3.77774606 L43.1122219,6.9146109 L45.3846065,3.75763795 L45.3945296,3.75763795 L45.3945296,8.70423255 L46.3272988,9.04607037 L46.3272988,9.04607037 Z M46.5704142,18.7884488 L43.315645,11.7103947 L42.7897219,11.951692 L39.6639527,18.7884488 L40.4875681,19.1805569 L41.6684142,16.606719 L44.5758758,16.606719 L45.7269527,19.1705028 L46.5704142,18.7884488 L46.5704142,18.7884488 Z M44.2087219,15.8023947 L42.0157219,15.8023947 L43.1171834,13.3592596 L44.2087219,15.8023947 L44.2087219,15.8023947 Z M45.3052219,26.8819623 C45.3052219,26.4865008 45.2241843,26.171477 45.0621065,25.9368812 C44.9000288,25.7022854 44.6949539,25.512936 44.4468758,25.3688271 C44.1987976,25.2247183 43.9292234,25.1090979 43.638145,25.0219623 C43.3470666,24.9348267 43.0774924,24.8409898 42.8294142,24.7404488 C42.5813361,24.6399077 42.3746074,24.5159089 42.2092219,24.3684488 C42.0438365,24.2209885 41.961145,24.0132068 41.961145,23.7450974 C41.961145,23.5909345 41.9909139,23.4485035 42.0504527,23.3178001 C42.1099915,23.1870968 42.1926829,23.073152 42.2985296,22.9759623 C42.4043763,22.8787726 42.5284135,22.8033679 42.670645,22.749746 C42.8128765,22.6961242 42.9666826,22.6693136 43.1320681,22.6693136 C43.3503768,22.6693136 43.5604132,22.7095294 43.7621834,22.7899623 C43.9639537,22.8703951 44.2103743,22.9910426 44.5014527,23.1519082 L44.8586834,22.3576379 C44.2765267,22.0023929 43.6844557,21.8247731 43.0824527,21.8247731 C42.7913743,21.8247731 42.5201463,21.8750429 42.2687604,21.9755839 C42.0173745,22.0761249 41.7957613,22.213529 41.6039142,22.3878001 C41.4120671,22.5620712 41.2615686,22.7681773 41.1524142,23.0061244 C41.0432598,23.2440716 40.9886834,23.4970961 40.9886834,23.7652055 C40.9886834,24.0601259 41.0366445,24.3081234 41.1325681,24.5092055 C41.2284916,24.7102876 41.3541827,24.8795291 41.509645,25.0169353 C41.6651073,25.1543414 41.8420671,25.2666105 42.0405296,25.353746 C42.2389921,25.4408817 42.4424132,25.5213133 42.6507988,25.5950434 C42.8591845,25.6687734 43.0642594,25.7408268 43.2660296,25.8112055 C43.4677999,25.8815843 43.6464134,25.9653672 43.8018758,26.0625569 C43.9573381,26.1597466 44.0830291,26.280394 44.1789527,26.4245028 C44.2748762,26.5686117 44.3228373,26.7479071 44.3228373,26.9623947 C44.3228373,27.3511534 44.1938386,27.6477451 43.9358373,27.8521785 C43.677836,28.0566119 43.3437624,28.1588271 42.9336065,28.1588271 C42.6888361,28.1588271 42.4424154,28.0918008 42.1943373,27.957746 C41.9462591,27.8236913 41.6733772,27.6561254 41.3756834,27.4550434 L41.0283758,28.2895298 C41.3856083,28.5241256 41.7279511,28.7017455 42.0554142,28.8223947 C42.3828774,28.943044 42.7119895,29.0033677 43.0427604,29.0033677 C43.353685,29.0033677 43.6464129,28.9581249 43.9209527,28.8676379 C44.1954925,28.777151 44.4352978,28.6430983 44.6403758,28.4654758 C44.8454537,28.2878533 45.007529,28.0666663 45.1266065,27.8019082 C45.2456841,27.5371502 45.3052219,27.2305045 45.3052219,26.8819623 L45.3052219,26.8819623 Z M46.8085681,35.4681244 C46.8085681,34.9654192 46.712646,34.4962347 46.5207988,34.0605569 C46.3289517,33.624879 46.0676467,33.2445044 45.7368758,32.9194217 C45.4061049,32.594339 45.0158011,32.3396389 44.5659527,32.1553136 C44.1161043,31.9709884 43.633186,31.8788271 43.1171834,31.8788271 C42.6011809,31.8788271 42.1199165,31.9709884 41.6733758,32.1553136 C41.2268351,32.3396389 40.8381851,32.594339 40.5074142,32.9194217 C40.1766433,33.2445044 39.9169921,33.624879 39.7284527,34.0605569 C39.5399133,34.4962347 39.445645,34.9654192 39.445645,35.4681244 C39.445645,35.9708297 39.5399133,36.4400141 39.7284527,36.875692 C39.9169921,37.3113698 40.1766433,37.6917444 40.5074142,38.0168271 C40.8381851,38.3419099 41.2268351,38.59661 41.6733758,38.7809353 C42.1199165,38.9652605 42.6011809,39.0574217 43.1171834,39.0574217 C43.633186,39.0574217 44.1161043,38.9652605 44.5659527,38.7809353 C45.0158011,38.59661 45.4061049,38.3419099 45.7368758,38.0168271 C46.0676467,37.6917444 46.3289517,37.3113698 46.5207988,36.875692 C46.712646,36.4400141 46.8085681,35.9708297 46.8085681,35.4681244 L46.8085681,35.4681244 Z M45.8361065,35.4681244 C45.8361065,35.8568832 45.7666457,36.2188255 45.6277219,36.5539623 C45.4887982,36.8890991 45.2986077,37.1789881 45.057145,37.4236379 C44.8156822,37.6682878 44.5295697,37.8609886 44.1987988,38.001746 C43.8680279,38.1425035 43.5141084,38.2128812 43.1370296,38.2128812 C42.7599508,38.2128812 42.4060313,38.1425035 42.0752604,38.001746 C41.7444895,37.8609886 41.4567231,37.6682878 41.2119527,37.4236379 C40.9671822,37.1789881 40.7736842,36.8890991 40.6314527,36.5539623 C40.4892212,36.2188255 40.4181065,35.8568832 40.4181065,35.4681244 C40.4181065,35.0793657 40.4892212,34.7190991 40.6314527,34.3873136 C40.7736842,34.0555282 40.9671822,33.7656392 41.2119527,33.5176379 C41.4567231,33.2696367 41.7444895,33.0752603 42.0752604,32.9345028 C42.4060313,32.7937454 42.7599508,32.7233677 43.1370296,32.7233677 C43.5141084,32.7233677 43.8680279,32.7937454 44.1987988,32.9345028 C44.5295697,33.0752603 44.8156822,33.2696367 45.057145,33.5176379 C45.2986077,33.7656392 45.4887982,34.0555282 45.6277219,34.3873136 C45.7666457,34.7190991 45.8361065,35.0793657 45.8361065,35.4681244 L45.8361065,35.4681244 Z M46.2876065,49.342719 L46.2876065,42.0233677 L45.3548373,42.0233677 L45.3548373,47.3520163 L40.6810681,42.0434758 L39.9566834,41.6815298 L39.9566834,49.0008812 L40.8993758,49.0008812 L40.8993758,43.6521244 L45.6029142,48.9807731 L46.2876065,49.342719 L46.2876065,49.342719 Z M6.55643343,60.9395116 L6.55643343,54.5227911 L5.72730525,54.5227911 L5.72730525,57.2753677 L2.22556166,57.2753677 L2.22556166,54.5227911 L1.39643345,54.5227911 L1.39643345,60.9395116 L2.22556166,60.6535299 L2.22556166,57.9903228 L5.72730525,57.9903228 L5.72730525,60.6535299 L6.55643343,60.9395116 L6.55643343,60.9395116 Z M14.770536,60.6803406 L11.8774078,54.3887371 L11.4099207,54.6032236 L8.63145909,60.6803406 L9.36356167,61.0288814 L10.4132027,58.7410252 L12.9976129,58.7410252 L14.0207924,61.0199442 L14.770536,60.6803406 L14.770536,60.6803406 Z M12.671254,58.0260702 L10.7219207,58.0260702 L11.7009976,55.8543947 L12.671254,58.0260702 L12.671254,58.0260702 Z M17.6923309,60.7250252 L17.6923309,54.3083046 L16.8632027,54.6210974 L16.8632027,60.7250252 L17.6923309,60.7250252 L17.6923309,60.7250252 Z M25.1566898,60.5194755 L23.216177,57.6864668 C23.9218216,57.4004834 24.2746386,56.894062 24.2746386,56.1671875 C24.2746386,55.9526999 24.2378868,55.7471525 24.1643822,55.5505388 C24.0908775,55.3539252 23.9703317,55.1796567 23.8027412,55.0277281 C23.6351506,54.8757994 23.41611,54.7536624 23.1456129,54.6613136 C22.8751159,54.5689648 22.54582,54.5227911 22.1577155,54.5227911 L20.4729976,54.5227911 L20.4729976,60.7339625 L21.3021258,60.7339625 L21.3021258,57.9098902 L22.4399719,57.9098902 L24.4775104,60.9573856 L25.1566898,60.5194755 L25.1566898,60.5194755 Z M23.4102283,56.2118722 C23.4102283,56.5157296 23.3014431,56.7570245 23.0838693,56.9357641 C22.8662956,57.1145037 22.5311195,57.2038722 22.0783309,57.2038722 L21.3021258,57.2038722 L21.3021258,55.2288091 L22.0606898,55.2288091 C22.5311196,55.2288091 22.8736461,55.3211566 23.0882796,55.5058542 C23.3029132,55.6905518 23.4102283,55.9258888 23.4102283,56.2118722 L23.4102283,56.2118722 Z M35.3135104,59.0270075 C35.3135104,58.6159063 35.2076653,58.2763057 34.9959719,58.0081962 C34.7842786,57.7400871 34.4785038,57.5553922 34.0786386,57.4541064 C34.3256142,57.2932407 34.509373,57.1085459 34.6299207,56.9000163 C34.7504682,56.6914868 34.8107412,56.4382761 34.8107412,56.1403767 C34.8107412,55.955679 34.7798697,55.7680053 34.7181258,55.5773497 C34.6563819,55.386694 34.5446565,55.213915 34.3829463,55.0590073 C34.221236,54.9040997 34.0007255,54.7760048 33.7214078,54.674719 C33.4420902,54.5734333 33.0819228,54.5227911 32.640895,54.5227911 L31.282536,54.5227911 L31.282536,60.7250252 L33.1613053,60.7250252 C33.4847257,60.7250252 33.7802099,60.686299 34.0477668,60.6088453 C34.3153237,60.5313911 34.5417146,60.4196804 34.7269463,60.2737098 C34.912178,60.1277392 35.0562449,59.9490025 35.1591514,59.7374939 C35.2620579,59.5259852 35.3135104,59.2891585 35.3135104,59.0270075 L35.3135104,59.0270075 Z M33.9463309,56.229746 C33.9463309,56.3846537 33.9213397,56.5246643 33.8713565,56.6497821 C33.8213734,56.7748998 33.7419896,56.882142 33.6332027,56.9715118 C33.5244158,57.0608817 33.3803489,57.1293975 33.2009976,57.1770614 C33.0216462,57.2247253 32.8026057,57.2485569 32.5438693,57.2485569 L32.1116642,57.2485569 L32.1116642,55.2288091 L32.5262283,55.2288091 C32.726161,55.2288091 32.9128599,55.2451933 33.0863309,55.2779623 C33.2598019,55.3107312 33.409749,55.3658418 33.5361771,55.4432956 C33.662605,55.5207494 33.7625698,55.6235232 33.8360745,55.75162 C33.9095791,55.8797166 33.9463309,56.0390904 33.9463309,56.229746 L33.9463309,56.229746 Z M34.4579207,58.9912595 C34.4579207,59.1104195 34.4373397,59.2295771 34.3961771,59.3487371 C34.3550144,59.467897 34.2815109,59.5781179 34.1756642,59.6794039 C34.0698176,59.7806893 33.9257506,59.8626104 33.7434591,59.9251696 C33.5611676,59.9877282 33.3318365,60.0190075 33.0554591,60.0190075 L32.1116642,60.0190075 L32.1116642,57.9456379 L32.9231514,57.9456379 C33.2406915,57.9456379 33.4979539,57.9769169 33.6949463,58.0394755 C33.8919387,58.1020347 34.0477662,58.1824661 34.1624334,58.2807731 C34.2771007,58.3790796 34.3550144,58.4907903 34.3961771,58.6159081 C34.4373397,58.7410258 34.4579207,58.8661418 34.4579207,58.9912595 L34.4579207,58.9912595 Z M43.9509976,57.6328452 C43.9509976,57.1859961 43.8657335,56.7689432 43.6952027,56.381674 C43.5246719,55.9944048 43.2924007,55.656294 42.9983822,55.3673317 C42.7043636,55.0783693 42.3574269,54.8519691 41.9575617,54.6881244 C41.5576964,54.5242798 41.1284357,54.4423586 40.6697668,54.4423586 C40.2110978,54.4423586 39.7833073,54.5242798 39.3863822,54.6881244 C38.9894571,54.8519691 38.6439905,55.0783693 38.3499719,55.3673317 C38.0559533,55.656294 37.8251522,55.9944048 37.6575617,56.381674 C37.4899711,56.7689432 37.406177,57.1859961 37.406177,57.6328452 C37.406177,58.0796944 37.4899711,58.496747 37.6575617,58.8840163 C37.8251522,59.2712857 38.0559533,59.6093961 38.3499719,59.8983589 C38.6439905,60.1873212 38.9894571,60.4137215 39.3863822,60.577566 C39.7833073,60.7414106 40.2110978,60.8233317 40.6697668,60.8233317 C41.1284357,60.8233317 41.5576964,60.7414106 41.9575617,60.577566 C42.3574269,60.4137215 42.7043636,60.1873212 42.9983822,59.8983589 C43.2924007,59.6093961 43.5246719,59.2712857 43.6952027,58.8840163 C43.8657335,58.496747 43.9509976,58.0796944 43.9509976,57.6328452 L43.9509976,57.6328452 Z M43.0865873,57.6328452 C43.0865873,57.9784084 43.0248443,58.3001351 42.9013565,58.5980341 C42.7778687,58.8959337 42.6088106,59.1536126 42.394177,59.3710796 C42.1795435,59.5885461 41.9252213,59.7598353 41.6312027,59.884953 C41.3371841,60.0100708 41.022589,60.0726288 40.6874078,60.0726288 C40.3522267,60.0726288 40.0376315,60.0100708 39.7436129,59.884953 C39.4495944,59.7598353 39.1938021,59.5885461 38.9762283,59.3710796 C38.7586546,59.1536126 38.5866563,58.8959337 38.4602283,58.5980341 C38.3338004,58.3001351 38.2705873,57.9784084 38.2705873,57.6328452 C38.2705873,57.2872818 38.3338004,56.9670448 38.4602283,56.6721244 C38.5866563,56.3772041 38.7586546,56.1195249 38.9762283,55.8990794 C39.1938021,55.6786338 39.4495944,55.5058548 39.7436129,55.3807371 C40.0376315,55.2556193 40.3522267,55.1930614 40.6874078,55.1930614 C41.022589,55.1930614 41.3371841,55.2556193 41.6312027,55.3807371 C41.9252213,55.5058548 42.1795435,55.6786338 42.394177,55.8990794 C42.6088106,56.1195249 42.7778687,56.3772041 42.9013565,56.6721244 C43.0248443,56.9670448 43.0865873,57.2872818 43.0865873,57.6328452 L43.0865873,57.6328452 Z M51.5917668,60.9305749 L51.5917668,54.3887371 L50.7626386,54.5942866 L50.7626386,57.936701 C50.7626386,58.3239703 50.7082459,58.6546337 50.5994591,58.928701 C50.4906722,59.2027682 50.3480754,59.4247004 50.1716642,59.5945027 C49.9952531,59.7643057 49.7967935,59.8879319 49.5762796,59.9653856 C49.3557657,60.0428398 49.133785,60.081566 48.9103309,60.081566 C48.675116,60.081566 48.4516653,60.0398603 48.2399719,59.9564489 C48.0282786,59.8730369 47.8430496,59.7464317 47.6842796,59.5766288 C47.5255096,59.4068264 47.4005536,59.1908526 47.3094078,58.928701 C47.218262,58.6665493 47.1726898,58.3567388 47.1726898,57.9992595 L47.1726898,54.5942866 L46.3435617,54.3887371 L46.3435617,58.0171335 C46.3435617,58.4878143 46.4111849,58.8989097 46.5464334,59.2504305 C46.681682,59.601952 46.8654409,59.8953783 47.0977155,60.1307193 C47.3299902,60.3660597 47.6019533,60.5418175 47.9136129,60.6579986 C48.2252726,60.7741791 48.5575086,60.8322684 48.9103309,60.8322684 C49.0749813,60.8322684 49.2440394,60.814395 49.4175104,60.7786471 C49.5909814,60.7428992 49.7600395,60.6892779 49.9246898,60.617782 C50.0893403,60.5462862 50.2451678,60.4569175 50.392177,60.3496737 C50.5391863,60.24243 50.6685526,60.1143356 50.7802796,59.9653856 L50.7802796,60.6714039 L51.5917668,60.9305749 L51.5917668,60.9305749 Z M58.9679209,54.5227911 L53.7549976,54.5227911 L53.4992027,55.2288091 L55.792536,55.2288091 L55.792536,60.7339625 L56.6216642,60.7339625 L56.6216642,55.2288091 L58.7209461,55.2288091 L58.9679209,54.5227911 L58.9679209,54.5227911 Z M61.8279719,60.7250252 L61.8279719,54.3083046 L60.9988436,54.6210974 L60.9988436,60.7250252 L61.8279719,60.7250252 L61.8279719,60.7250252 Z M70.9064845,57.6149713 C70.9064845,57.1621642 70.8226906,56.7421324 70.6551002,56.3548631 C70.4875097,55.967594 70.2567086,55.6309727 69.9626901,55.3449893 C69.6686716,55.0590059 69.3217344,54.8355847 68.9218693,54.674719 C68.5220043,54.5138533 68.0898033,54.4334217 67.6252542,54.4334217 C67.1607046,54.4334217 66.7285036,54.5153428 66.3286385,54.6791875 C65.9287735,54.8430321 65.5833069,55.0679428 65.2922284,55.3539262 C65.00115,55.6399096 64.773289,55.9780204 64.6086385,56.3682686 C64.4439881,56.7585168 64.3616643,57.1800381 64.3616643,57.6328452 C64.3616643,58.0796944 64.4483982,58.5086631 64.6218693,58.9197643 C64.7953405,59.3308654 65.0408418,59.6645077 65.3583819,59.920701 C65.3760234,60.5045839 65.4068945,61.0690945 65.4509976,61.6142507 C65.4951002,62.1594062 65.5671338,62.673275 65.6671002,63.155872 L66.4080234,63.334611 C66.3962626,63.2631152 66.3830318,63.1737465 66.368331,63.0665027 C66.3536301,62.959259 66.3374593,62.8028642 66.3198178,62.5973134 C66.3021769,62.3917631 66.284536,62.122168 66.2668951,61.7885211 C66.2492536,61.4548736 66.2316128,61.0288837 66.2139719,60.5105388 C66.4315456,60.6475727 66.6652867,60.7369408 66.9152027,60.7786471 C67.1651187,60.8203528 67.3929797,60.8412057 67.5987926,60.8412057 C68.0574616,60.8412057 68.488192,60.7577948 68.8909976,60.5909714 C69.2938027,60.4241479 69.64368,60.1962579 69.9406385,59.9072956 C70.2375971,59.6183333 70.4728088,59.2772435 70.6462794,58.8840163 C70.8197506,58.4907892 70.9064845,58.0677782 70.9064845,57.6149713 L70.9064845,57.6149713 Z M70.0420744,57.6239082 C70.0420744,57.9635134 69.9773915,58.2822611 69.8480234,58.5801607 C69.7186548,58.8780597 69.5437164,59.1357392 69.3232027,59.3532057 C69.1026889,59.5706721 68.8454262,59.7434511 68.5514077,59.8715477 C68.2573892,59.9996443 67.9427943,60.0636921 67.6076128,60.0636921 C67.2724318,60.0636921 66.9607769,59.9996443 66.6726385,59.8715477 C66.3845001,59.7434511 66.1331181,59.5691824 65.9184845,59.3487371 C65.7038514,59.1282917 65.5347932,58.8706122 65.4113052,58.5756921 C65.2878172,58.2807714 65.2260744,57.9635134 65.2260744,57.6239082 C65.2260744,57.2843029 65.2878172,56.9670448 65.4113052,56.6721244 C65.5347932,56.3772041 65.7053214,56.1195249 65.9228951,55.8990794 C66.1404688,55.6786338 66.3962609,55.5043653 66.6902794,55.3762686 C66.9842979,55.2481718 67.2988934,55.1841244 67.6340744,55.1841244 C67.9692554,55.1841244 68.2838508,55.2466824 68.5778693,55.3718001 C68.8718879,55.4969179 69.1262099,55.6696969 69.3408436,55.8901424 C69.5554772,56.110588 69.7260055,56.3682671 69.8524335,56.6631875 C69.9788615,56.9581079 70.0420744,57.2783449 70.0420744,57.6239082 L70.0420744,57.6239082 Z M78.5384335,60.9305749 L78.5384335,54.3887371 L77.7093052,54.5942866 L77.7093052,57.936701 C77.7093052,58.3239703 77.6549125,58.6546337 77.5461259,58.928701 C77.4373388,59.2027682 77.2947422,59.4247004 77.118331,59.5945027 C76.9419197,59.7643057 76.7434604,59.8879319 76.5229461,59.9653856 C76.3024323,60.0428398 76.0804514,60.081566 75.8569976,60.081566 C75.6217825,60.081566 75.3983321,60.0398603 75.1866385,59.9564489 C74.9749449,59.8730369 74.7897164,59.7464317 74.6309461,59.5766288 C74.4721763,59.4068264 74.34722,59.1908526 74.2560744,58.928701 C74.1649287,58.6665493 74.1193567,58.3567388 74.1193567,57.9992595 L74.1193567,54.5942866 L73.2902284,54.3887371 L73.2902284,58.0171335 C73.2902284,58.4878143 73.3578514,58.8989097 73.4931002,59.2504305 C73.6283489,59.601952 73.8121074,59.8953783 74.0443819,60.1307193 C74.276657,60.3660597 74.54862,60.5418175 74.8602794,60.6579986 C75.1719394,60.7741791 75.5041752,60.8322684 75.8569976,60.8322684 C76.0216481,60.8322684 76.1907063,60.814395 76.3641769,60.7786471 C76.5376481,60.7428992 76.7067063,60.6892779 76.8713567,60.617782 C77.0360072,60.5462862 77.1918346,60.4569175 77.3388436,60.3496737 C77.4858531,60.24243 77.6152195,60.1143356 77.7269461,59.9653856 L77.7269461,60.6714039 L78.5384335,60.9305749 L78.5384335,60.9305749 Z M84.8914077,60.7250252 L84.6532542,60.0190075 L82.0423819,60.0190075 L82.0423819,57.9635116 L84.4856643,57.9635116 L84.4856643,57.2574938 L82.0423819,57.2574938 L82.0423819,55.2288091 L84.5385876,55.2288091 L84.8473052,54.5227911 L81.2132542,54.5227911 L81.2132542,60.7250252 L84.8914077,60.7250252 L84.8914077,60.7250252 Z" id="Mason-logo"></path>
            </g>
        </g>
    </g>
</svg>